<svg width="1920" height="5456" viewBox="0 0 1920 5456" fill="none" xmlns="http://www.w3.org/2000/svg">
<rect width="1920" height="5456" fill="#1E1E1E"/>
<g clip-path="url(#clip0_0_1)">
<rect width="1920" height="5456" fill="#F1F0E8"/>
<g opacity="0.64" filter="url(#filter0_f_0_1)">
<path fill-rule="evenodd" clip-rule="evenodd" d="M1741.26 4022.66C1915.59 4100.24 2135.98 4173.6 2182.86 4281.5C2230.77 4391.79 2115.75 4494.53 1980.44 4573.2C1855.46 4645.86 1659.54 4673.47 1465.98 4698.28C1280.03 4722.13 1085.6 4746.93 889.753 4713.05C694.739 4679.31 560.887 4592.05 414.528 4516.4C252.065 4432.43 72.05 4354.94 -7.47765 4249.3C-104.44 4120.51 -231.439 3960.06 -77.6292 3862.66C77.7377 3764.28 419.306 3805.57 690.141 3807.56C885.563 3808.99 1074.37 3833.73 1263.79 3872.5C1440 3908.55 1596.79 3958.37 1741.26 4022.66Z" fill="#92EABA"/>
</g>
<g opacity="0.54" filter="url(#filter1_f_0_1)">
<path fill-rule="evenodd" clip-rule="evenodd" d="M245.745 988.555C231.103 978.094 215.796 967.882 200.39 957.604C130.197 910.774 57.9531 862.576 37.2134 783.219C11.3591 684.292 58.9971 579.139 116.695 494.771C169.986 416.847 256.91 375.155 342.888 336.249C425.484 298.873 511.854 259.912 601.16 275.543C674.516 288.382 730.606 338.572 786.571 388.65L786.572 388.651C798.451 399.281 810.326 409.906 822.358 420.168C834.785 430.766 847.415 441.166 860.024 451.548C924.807 504.894 989.038 557.785 1022.41 634.803C1023.67 637.691 1024.93 640.598 1026.2 643.521L1026.2 643.524C1044.26 685.136 1063.8 730.167 1077.77 775.514C1126.74 740.616 1178.99 713.308 1240.01 705.459C1340.1 692.585 1432.44 732.193 1521.6 779.374C1542.53 790.449 1564.31 801.038 1586.2 811.682L1586.21 811.683C1686.72 860.543 1789.59 910.55 1823.1 1014.01C1868.26 1153.45 1836.09 1324.45 1731.4 1427.13C1659.07 1498.07 1555.33 1494.32 1450.79 1490.54H1450.79C1412.73 1489.16 1374.58 1487.78 1337.79 1490C1310.54 1491.64 1283.27 1494.54 1256.14 1497.42C1160.9 1507.54 1067.4 1517.47 982.948 1472.24C966.241 1463.29 949.232 1453.73 932.288 1443.55C933.033 1446.67 933.771 1449.78 934.505 1452.87L934.981 1454.87C952.693 1529.44 964.953 1612.04 927.739 1679.05C906.894 1716.59 867.328 1733.1 826.952 1749.96C798.683 1761.75 770.017 1773.72 747.101 1793.18C720.369 1815.88 700.483 1846.55 680.885 1876.77C651.255 1922.46 622.284 1967.13 571.307 1981.74C479.906 2007.93 377.735 1975.65 299.673 1921.39C219.145 1865.41 162.174 1778.12 140.736 1682.45C120.018 1589.99 136.72 1490.34 184.787 1408.67C228.327 1334.7 307.058 1288.85 388.463 1261.56C429.41 1247.83 471.092 1254.94 513.437 1262.16C540.767 1266.82 568.373 1271.53 596.237 1270.72C625.52 1269.86 655.192 1261.39 684.472 1253.03C699.096 1248.86 713.621 1244.71 727.951 1241.55C716.319 1214.13 709.799 1184.87 710.005 1153.73C710.119 1136.46 712.661 1120.24 717.233 1104.91C632.573 1117.51 549.736 1109.65 466.126 1089.66C385.558 1070.4 313.167 1036.73 245.745 988.555Z" fill="#DAF50F"/>
</g>
<g opacity="0.64" filter="url(#filter2_f_0_1)">
<path fill-rule="evenodd" clip-rule="evenodd" d="M1038.17 3502.21L1038.96 3501.27C1061.89 3474.14 1088.57 3447.74 1115.36 3421.23C1196.38 3341.06 1278.48 3259.82 1261.3 3153.81C1256.32 3123.07 1245.02 3095.31 1228.98 3070.2C1242.59 3064.7 1256.22 3058.2 1269.94 3051.64C1297.42 3038.53 1325.27 3025.24 1354 3019.52C1381.34 3014.07 1409.35 3014.12 1437.07 3014.17C1480.03 3014.24 1522.31 3014.31 1560.4 2993.96C1636.13 2953.49 1706.13 2895.18 1736.75 2814.99C1770.55 2726.46 1770.43 2625.42 1734.61 2537.7C1697.54 2446.93 1626.83 2370.34 1538.11 2328.55C1452.1 2288.05 1345.98 2273.22 1260.22 2314.26C1212.38 2337.15 1191.25 2386.03 1169.64 2436.01C1155.35 2469.08 1140.85 2502.62 1118.27 2529.46C1098.91 2552.46 1072.64 2569.03 1046.73 2585.37C1009.72 2608.71 973.454 2631.58 959.148 2672.06C933.609 2744.33 959.45 2823.75 989.329 2894.32L990.131 2896.22C991.369 2899.14 992.614 2902.09 993.869 2905.04C975.467 2897.83 957.104 2891.23 939.14 2885.19C848.335 2854.64 757.799 2880 665.564 2905.83C639.295 2913.19 612.887 2920.59 586.297 2926.74C550.389 2935.05 512.531 2940.05 474.78 2945.02C371.069 2958.7 268.155 2972.27 208.643 3054.26C122.508 3172.94 119.25 3346.9 186.999 3476.88C237.264 3573.32 347.023 3605.5 454.266 3636.95C477.627 3643.8 500.869 3650.62 523.35 3658.05C619.122 3689.73 716.767 3713.42 813.311 3684.06C909.161 3654.92 973.486 3578.78 1038.17 3502.21Z" fill="#E7C0DD"/>
</g>
</g>
<defs>
<filter id="filter0_f_0_1" x="-249.354" y="3697.28" width="2543.28" height="1132.33" filterUnits="userSpaceOnUse" color-interpolation-filters="sRGB">
<feFlood flood-opacity="0" result="BackgroundImageFix"/>
<feBlend mode="normal" in="SourceGraphic" in2="BackgroundImageFix" result="shape"/>
<feGaussianBlur stdDeviation="50" result="effect1_foregroundBlur_0_1"/>
</filter>
<filter id="filter1_f_0_1" x="-70" y="172" width="2013" height="1919" filterUnits="userSpaceOnUse" color-interpolation-filters="sRGB">
<feFlood flood-opacity="0" result="BackgroundImageFix"/>
<feBlend mode="normal" in="SourceGraphic" in2="BackgroundImageFix" result="shape"/>
<feGaussianBlur stdDeviation="50" result="effect1_foregroundBlur_0_1"/>
</filter>
<filter id="filter2_f_0_1" x="39.7359" y="2189.87" width="1822.05" height="1607.55" filterUnits="userSpaceOnUse" color-interpolation-filters="sRGB">
<feFlood flood-opacity="0" result="BackgroundImageFix"/>
<feBlend mode="normal" in="SourceGraphic" in2="BackgroundImageFix" result="shape"/>
<feGaussianBlur stdDeviation="50" result="effect1_foregroundBlur_0_1"/>
</filter>
<clipPath id="clip0_0_1">
<rect width="1920" height="5456" fill="white"/>
</clipPath>
</defs>
</svg>
