<svg width="312" height="394" viewBox="0 0 312 394" fill="none" xmlns="http://www.w3.org/2000/svg">
<path d="M213.179 53.7207L231.046 174.162C231.303 175.961 228.99 177.825 225.905 178.275C222.755 178.725 219.992 177.632 219.734 175.833L201.867 55.3917C201.931 55.9701 202.253 56.42 202.767 56.8056C203.86 57.7054 205.852 58.1553 208.037 57.8339C210.222 57.5126 211.958 56.5486 212.793 55.3274C213.179 54.8133 213.307 54.2349 213.243 53.7207H213.179Z" fill="#F1F0E8" stroke="#024F40" stroke-width="4" stroke-miterlimit="2.61313" stroke-linecap="round" stroke-linejoin="round"/>
<path d="M213.179 53.7211C213.243 54.2996 213.114 54.8137 212.729 55.3279C211.957 56.4847 210.158 57.513 207.973 57.8344C205.788 58.1557 203.795 57.7058 202.702 56.8061C202.188 56.4205 201.867 55.9063 201.803 55.3922C201.546 53.5926 203.859 51.7288 207.009 51.2789C210.158 50.829 212.857 51.9216 213.179 53.7211Z" fill="#F1F0E8" stroke="#024F40" stroke-width="4" stroke-miterlimit="2.61313" stroke-linecap="round" stroke-linejoin="round"/>
<path d="M303.286 106.229L286.447 116.063C282.333 118.44 277.256 118.44 273.143 116.063L209.772 78.4006C205.658 75.9584 200.581 75.9584 196.468 78.4006L66.5119 154.303C62.3985 156.681 57.3211 156.681 53.2721 154.303L8.60383 128.981C-0.201277 123.903 -0.201277 111.242 8.60383 106.101L167.931 12.7815C172.045 10.4036 177.122 10.4036 181.235 12.7815L303.35 83.4136C312.155 88.4909 312.155 101.216 303.35 106.294L303.286 106.229Z" fill="#F1F0E8" stroke="#024F40" stroke-width="4" stroke-miterlimit="2.61313" stroke-linecap="round" stroke-linejoin="round"/>
<path d="M303.286 97.2312L286.447 107.064C282.333 109.442 277.256 109.442 273.143 107.064L209.772 69.4026C205.658 66.9603 200.581 66.9603 196.468 69.4026L66.5119 145.305C62.3985 147.683 57.3211 147.683 53.2721 145.305L8.60383 119.983C-0.201277 114.905 -0.201277 102.244 8.60383 97.1027L167.931 3.78348C172.045 1.40551 177.122 1.40551 181.235 3.78348L303.35 74.4156C312.155 79.4929 312.155 92.154 303.35 97.2955L303.286 97.2312Z" fill="#F1F0E8" stroke="#024F40" stroke-width="4" stroke-miterlimit="2.61313" stroke-linecap="round" stroke-linejoin="round"/>
<path d="M91.3211 212.659L91.4496 337.342C91.4496 339.206 88.8788 340.684 85.7295 340.684C82.5802 340.684 80.0094 339.206 80.0094 337.342L79.8809 212.659C79.8809 213.238 80.1379 213.752 80.5236 214.202C81.4876 215.23 83.3515 216.001 85.601 216.001C87.7862 216.001 89.7143 215.294 90.6784 214.202C91.1283 213.752 91.3211 213.238 91.3211 212.659Z" fill="#F1F0E8" stroke="#024F40" stroke-width="4" stroke-miterlimit="2.61313" stroke-linecap="round" stroke-linejoin="round"/>
<path d="M91.3211 212.659C91.3211 213.238 91.064 213.752 90.6784 214.202C89.7143 215.23 87.8504 216.001 85.601 216.001C83.4158 216.001 81.4876 215.294 80.5236 214.202C80.0737 213.752 79.8809 213.238 79.8809 212.659C79.8809 210.796 82.4517 209.317 85.601 209.317C88.7502 209.317 91.3211 210.796 91.3211 212.659Z" fill="#F1F0E8" stroke="#024F40" stroke-width="4" stroke-miterlimit="2.61313" stroke-linecap="round" stroke-linejoin="round"/>
<path d="M149.744 254.306L167.676 388.5C167.676 390.364 170.247 391.842 173.396 391.842C176.545 391.842 179.116 390.364 179.116 388.5L161.184 254.306C161.184 254.884 160.927 255.398 160.542 255.848C159.578 256.876 157.714 257.648 155.464 257.648C153.279 257.648 151.351 256.941 150.387 255.848C149.937 255.398 149.744 254.884 149.744 254.306Z" fill="#F1F0E8" stroke="#024F40" stroke-width="4" stroke-miterlimit="2.61313" stroke-linecap="round" stroke-linejoin="round"/>
<path d="M149.744 254.306C149.744 254.884 150.001 255.398 150.387 255.848C151.351 256.877 153.215 257.648 155.464 257.648C157.649 257.648 159.578 256.941 160.542 255.848C160.992 255.398 161.184 254.884 161.184 254.306C161.184 252.442 158.614 250.964 155.464 250.964C152.315 250.964 149.744 252.442 149.744 254.306Z" fill="#F1F0E8" stroke="#024F40" stroke-width="4" stroke-miterlimit="2.61313" stroke-linecap="round" stroke-linejoin="round"/>
<path d="M193.19 152.695L193.319 277.378C193.319 279.242 190.748 280.72 187.599 280.72C184.449 280.72 181.879 279.242 181.879 277.378L181.75 152.695C181.75 153.274 182.007 153.788 182.393 154.238C183.357 155.266 185.221 156.037 187.47 156.037C189.655 156.037 191.583 155.33 192.547 154.238C192.997 153.788 193.19 153.274 193.19 152.695Z" fill="#F1F0E8" stroke="#024F40" stroke-width="4" stroke-miterlimit="2.61313" stroke-linecap="round" stroke-linejoin="round"/>
<path d="M193.19 152.696C193.19 153.274 192.933 153.788 192.547 154.238C191.583 155.266 189.72 156.038 187.47 156.038C185.285 156.038 183.357 155.331 182.393 154.238C181.943 153.788 181.75 153.274 181.75 152.696C181.75 150.832 184.321 149.354 187.47 149.354C190.619 149.354 193.19 150.832 193.19 152.696Z" fill="#F1F0E8" stroke="#024F40" stroke-width="4" stroke-miterlimit="2.61313" stroke-linecap="round" stroke-linejoin="round"/>
<path d="M251.613 194.277L269.545 328.472C269.545 330.336 272.116 331.814 275.265 331.814C278.414 331.814 280.985 330.336 280.985 328.472L263.053 194.277C263.053 194.856 262.796 195.37 262.411 195.82C261.447 196.848 259.583 197.619 257.333 197.619C255.148 197.619 253.22 196.912 252.256 195.82C251.806 195.37 251.613 194.856 251.613 194.277Z" fill="#F1F0E8" stroke="#024F40" stroke-width="4" stroke-miterlimit="2.61313" stroke-linecap="round" stroke-linejoin="round"/>
<path d="M251.613 194.278C251.613 194.856 251.87 195.37 252.256 195.82C253.22 196.848 255.084 197.62 257.333 197.62C259.519 197.62 261.447 196.913 262.411 195.82C262.861 195.37 263.053 194.856 263.053 194.278C263.053 192.414 260.483 190.936 257.333 190.936C254.184 190.936 251.613 192.414 251.613 194.278Z" fill="#F1F0E8" stroke="#024F40" stroke-width="4" stroke-miterlimit="2.61313" stroke-linecap="round" stroke-linejoin="round"/>
<path d="M260.353 222.106L180.014 268.702C175.901 271.08 170.824 271.08 166.774 268.702L86.4359 222.106C77.6308 217.029 77.6308 204.368 86.4359 199.226L166.774 152.631C170.888 150.253 175.965 150.253 180.014 152.631L260.353 199.226C269.158 204.304 269.158 216.965 260.353 222.106Z" fill="#F1F0E8" stroke="#024F40" stroke-width="4" stroke-miterlimit="2.61313" stroke-linecap="round" stroke-linejoin="round"/>
<path d="M260.353 212.98L180.014 259.576C175.901 261.954 170.824 261.954 166.774 259.576L86.4359 212.98C77.6308 207.903 77.6308 195.242 86.4359 190.101L166.774 143.505C170.888 141.127 175.965 141.127 180.014 143.505L260.353 190.101C269.158 195.178 269.158 207.839 260.353 212.98Z" fill="#F1F0E8" stroke="#024F40" stroke-width="4" stroke-miterlimit="2.61313" stroke-linecap="round" stroke-linejoin="round"/>
<path d="M182.907 168.635L263.181 122.104C267.23 119.726 269.737 115.355 269.737 110.664V17.216C269.737 6.99717 258.682 0.634495 249.877 5.77605L169.603 52.5642C165.553 54.9422 163.047 59.2482 163.047 64.0042V157.195C163.047 167.414 174.101 173.712 182.907 168.635Z" fill="#F1F0E8" stroke="#024F40" stroke-width="4" stroke-miterlimit="2.61313" stroke-linecap="round" stroke-linejoin="round"/>
<path d="M189.461 171.591L269.736 125.06C273.785 122.682 276.291 118.311 276.291 113.62V20.1721C276.291 9.95322 265.237 3.59055 256.432 8.73211L176.157 55.5203C172.108 57.8982 169.602 62.2043 169.602 66.9602V160.151C169.602 170.305 180.656 176.668 189.461 171.591Z" fill="#F1F0E8" stroke="#024F40" stroke-width="4" stroke-miterlimit="2.61313" stroke-linecap="round" stroke-linejoin="round"/>
<path d="M211.251 137.656V259.383C211.251 261.246 208.68 262.725 205.531 262.725C202.381 262.725 199.811 261.246 199.811 259.383V137.656C199.811 138.235 200.068 138.749 200.453 139.199C201.417 140.227 203.281 140.998 205.531 140.998C207.716 140.998 209.644 140.291 210.608 139.199C211.058 138.749 211.251 138.235 211.251 137.656Z" fill="#F1F0E8" stroke="#024F40" stroke-width="4" stroke-miterlimit="2.61313" stroke-linecap="round" stroke-linejoin="round"/>
<path d="M211.251 137.656C211.251 138.235 210.994 138.749 210.608 139.199C209.644 140.227 207.78 140.998 205.531 140.998C203.345 140.998 201.417 140.292 200.453 139.199C200.003 138.749 199.811 138.235 199.811 137.656C199.811 135.793 202.381 134.314 205.531 134.314C208.68 134.314 211.251 135.793 211.251 137.656Z" fill="#F1F0E8" stroke="#024F40" stroke-width="4" stroke-miterlimit="2.61313" stroke-linecap="round" stroke-linejoin="round"/>
<path d="M246.149 116.897V238.624C246.149 240.488 243.578 241.966 240.429 241.966C237.28 241.966 234.709 240.488 234.709 238.624V116.897C234.709 117.476 234.966 117.99 235.352 118.44C236.316 119.468 238.18 120.239 240.429 120.239C242.614 120.239 244.542 119.533 245.506 118.44C245.956 117.99 246.149 117.476 246.149 116.897Z" fill="#F1F0E8" stroke="#024F40" stroke-width="4" stroke-miterlimit="2.61313" stroke-linecap="round" stroke-linejoin="round"/>
<path d="M246.149 116.898C246.149 117.476 245.892 117.99 245.506 118.44C244.542 119.468 242.679 120.24 240.429 120.24C238.244 120.24 236.316 119.533 235.352 118.44C234.902 117.99 234.709 117.476 234.709 116.898C234.709 115.034 237.28 113.556 240.429 113.556C243.578 113.556 246.149 115.034 246.149 116.898Z" fill="#F1F0E8" stroke="#024F40" stroke-width="4" stroke-miterlimit="2.61313" stroke-linecap="round" stroke-linejoin="round"/>
</svg>
