<svg width="100" height="21" viewBox="0 0 100 21" fill="none" xmlns="http://www.w3.org/2000/svg">
<mask id="mask0_583_568" style="mask-type:alpha" maskUnits="userSpaceOnUse" x="0" y="0" width="20" height="21">
<rect y="0.416016" width="20" height="20" fill="#D9D9D9"/>
</mask>
<g mask="url(#mask0_583_568)">
<path d="M7.37568 14.4368L10.0007 12.8534L12.6257 14.4576L11.9382 11.4576L14.2507 9.4576L11.209 9.18677L10.0007 6.35344L8.79235 9.16594L5.75068 9.43677L8.06318 11.4576L7.37568 14.4368ZM5.47985 17.0505L6.67381 11.9095L2.68506 8.45281L7.94777 7.99615L10.0007 3.14844L12.0536 7.99615L17.3163 8.45281L13.3276 11.9095L14.5215 17.0505L10.0007 14.323L5.47985 17.0505Z" fill="#024F40"/>
</g>
<mask id="mask1_583_568" style="mask-type:alpha" maskUnits="userSpaceOnUse" x="20" y="0" width="20" height="21">
<rect x="20" y="0.416016" width="20" height="20" fill="#D9D9D9"/>
</mask>
<g mask="url(#mask1_583_568)">
<path d="M27.3757 14.4368L30.0007 12.8534L32.6257 14.4576L31.9382 11.4576L34.2507 9.4576L31.209 9.18677L30.0007 6.35344L28.7924 9.16594L25.7507 9.43677L28.0632 11.4576L27.3757 14.4368ZM25.4799 17.0505L26.6738 11.9095L22.6851 8.45281L27.9478 7.99615L30.0007 3.14844L32.0536 7.99615L37.3163 8.45281L33.3276 11.9095L34.5215 17.0505L30.0007 14.323L25.4799 17.0505Z" fill="#024F40"/>
</g>
<mask id="mask2_583_568" style="mask-type:alpha" maskUnits="userSpaceOnUse" x="40" y="0" width="20" height="21">
<rect x="40" y="0.416016" width="20" height="20" fill="#D9D9D9"/>
</mask>
<g mask="url(#mask2_583_568)">
<path d="M47.3757 14.4368L50.0007 12.8534L52.6257 14.4576L51.9382 11.4576L54.2507 9.4576L51.209 9.18677L50.0007 6.35344L48.7924 9.16594L45.7507 9.43677L48.0632 11.4576L47.3757 14.4368ZM45.4799 17.0505L46.6738 11.9095L42.6851 8.45281L47.9478 7.99615L50.0007 3.14844L52.0536 7.99615L57.3163 8.45281L53.3276 11.9095L54.5215 17.0505L50.0007 14.323L45.4799 17.0505Z" fill="#024F40"/>
</g>
<mask id="mask3_583_568" style="mask-type:alpha" maskUnits="userSpaceOnUse" x="60" y="0" width="20" height="21">
<rect x="60" y="0.416016" width="20" height="20" fill="#D9D9D9"/>
</mask>
<g mask="url(#mask3_583_568)">
<path d="M67.3757 14.4368L70.0007 12.8534L72.6257 14.4576L71.9382 11.4576L74.2507 9.4576L71.209 9.18677L70.0007 6.35344L68.7924 9.16594L65.7507 9.43677L68.0632 11.4576L67.3757 14.4368ZM65.4799 17.0505L66.6738 11.9095L62.6851 8.45281L67.9478 7.99615L70.0007 3.14844L72.0536 7.99615L77.3163 8.45281L73.3276 11.9095L74.5215 17.0505L70.0007 14.323L65.4799 17.0505Z" fill="#024F40"/>
</g>
<mask id="mask4_583_568" style="mask-type:alpha" maskUnits="userSpaceOnUse" x="80" y="0" width="20" height="21">
<rect x="80" y="0.416016" width="20" height="20" fill="#D9D9D9"/>
</mask>
<g mask="url(#mask4_583_568)">
<path d="M87.3757 14.4368L90.0007 12.8534L92.6257 14.4576L91.9382 11.4576L94.2507 9.4576L91.209 9.18677L90.0007 6.35344L88.7924 9.16594L85.7507 9.43677L88.0632 11.4576L87.3757 14.4368ZM85.4799 17.0505L86.6738 11.9095L82.6851 8.45281L87.9478 7.99615L90.0007 3.14844L92.0536 7.99615L97.3163 8.45281L93.3276 11.9095L94.5215 17.0505L90.0007 14.323L85.4799 17.0505Z" fill="#024F40"/>
</g>
</svg>
