<svg width="438" height="225" viewBox="0 0 438 225" fill="none" xmlns="http://www.w3.org/2000/svg">
<path d="M142.243 97.4435C139.273 94.5735 135.393 92.9135 131.493 91.7435C121.713 88.8635 111.533 87.7235 101.343 87.8035C101.413 81.8535 100.742 73.1035 100.172 67.1535C99.8625 63.6735 99.5225 60.0135 97.6525 56.9735C92.9925 49.3235 82.4725 46.5835 74.3325 49.8335C69.4925 51.8535 65.1625 55.3235 62.2625 59.7035C60.3025 63.0835 59.2725 66.9335 58.4025 70.7235C56.9825 77.2735 56.6925 83.9835 56.0925 90.6435C45.7925 92.1535 35.7925 93.5735 24.6525 95.3535C14.9625 97.2235 2.2725 100.744 0.0825035 111.864C-0.817496 121.144 5.7425 130.894 15.0325 132.794C24.3225 135.294 38.9425 135.303 45.9725 135.624C47.9225 135.794 50.0825 135.854 53.4425 136.034C53.8625 146.124 54.7625 156.134 56.7925 164.134C56.8625 164.344 56.9225 164.574 56.9725 164.814C57.5925 168.974 58.4825 173.314 61.1025 176.694C64.2125 180.404 69.1825 182.214 73.9525 182.154C95.9925 181.344 99.9325 155.874 98.7525 138.294C98.7325 136.674 98.2125 133.024 97.9525 131.364C103.103 130.004 118.192 131.034 126.782 128.774C142.932 125.024 157.193 112.784 142.243 97.4435ZM92.0125 132.124C91.9925 139.344 92.3625 148.364 91.8025 153.514C91.7625 153.874 91.7225 154.244 91.6825 154.604C91.5525 155.434 91.4025 156.273 91.2325 157.094C89.1725 165.324 86.6225 171.964 79.5025 173.803C75.2425 174.813 69.7725 175.034 67.6425 172.394C75.6425 171.934 81.5825 164.574 82.8225 156.874C84.1125 144.204 84.6125 131.504 84.8925 120.084C95.5625 118.774 106.343 118.474 116.953 116.514C120.643 116.004 125.583 115.484 128.423 112.834C129.072 112.344 129.673 111.784 130.213 111.174C132.813 108.384 133.553 104.824 132.983 101.474C134.373 102.184 135.673 102.924 136.743 104.094C144.853 111.654 138.522 120.164 127.662 121.934C118.382 123.424 108.933 123.124 99.6025 124.124C97.1825 124.344 94.5025 125.134 93.1925 127.354C92.3725 128.794 92.0725 130.484 92.0125 132.124ZM93.8225 60.1235C95.9425 66.8535 96.3725 78.2835 96.3825 87.8935C93.2625 88.0335 90.1525 88.3235 87.0425 88.6835C87.3025 82.9635 87.8525 76.6135 87.9325 69.5035C88.1325 64.1835 86.4025 58.7435 82.4725 55.0235C81.9225 54.5135 81.3225 54.0235 80.6925 53.5735C86.1425 53.2335 91.3825 55.4635 93.8225 60.1235ZM33.3325 130.314C23.1525 129.594 14.2525 129.004 9.2525 124.224C18.0825 129.844 29.5625 125.424 39.2525 124.394C43.8825 123.874 48.4825 123.214 53.1025 122.634C53.1325 125.394 53.1825 128.194 53.2525 131.024C49.2225 130.794 36.8525 130.564 33.3325 130.314ZM246.273 175.574C236.173 171.164 224.893 174.023 214.383 175.113C192.253 178.483 171.193 181.524 150.573 186.754C145.803 187.584 141.113 188.743 136.623 190.624C130.193 193.344 122.392 198.384 123.002 206.284C123.902 212.584 128.163 218.424 133.693 221.514C137.753 223.704 142.433 224.314 146.983 224.404C160.253 224.553 173.553 223.383 186.603 220.964C202.233 217.684 218.123 215.904 233.763 212.674C243.403 210.524 255.743 208.193 259.823 197.934C261.453 193.083 260.193 187.583 257.242 183.493C254.402 179.913 250.393 177.434 246.273 175.574ZM246.753 203.944C233.562 208.954 219.873 210.144 204.823 212.624C185.973 216.243 167.003 219.923 147.713 219.553C144.063 219.624 140.223 219.044 136.953 217.594C138.153 217.523 139.373 217.303 140.633 216.803C141.433 216.553 141.963 216.394 142.323 216.284C143.023 216.134 143.723 215.984 144.423 215.844C156.462 213.264 168.713 211.824 180.753 209.234C197.223 206.024 213.463 201.133 230.233 199.743C241.313 200.113 246.842 185.734 238.693 178.514C239.293 178.604 239.903 178.614 240.513 178.734C255.793 182.624 262.312 197.274 246.753 203.944ZM318.363 28.3935C319.543 17.9135 316.543 5.08352 305.643 1.03351C297.593 -2.39649 289.823 3.33352 284.613 9.10352C274.283 19.8035 260.553 40.2035 251.983 53.3635C251.173 54.6135 235.903 78.8335 223.883 105.654C222.183 109.434 221.152 113.654 221.973 117.794C223.993 130.014 236.043 135.184 247.043 130.654C255.233 126.754 260.312 118.584 264.872 111.074C276.163 90.0235 291.353 71.4835 305.173 52.0935C310.173 44.6235 317.003 37.6035 318.363 28.3935ZM244.523 126.424C241.043 128.084 232.872 127.304 230.742 124.544C229.732 123.604 228.943 122.484 228.312 121.294C234.363 125.954 244.992 124.604 247.712 115.764C253.602 101.484 275.323 60.5235 292.523 39.5635C296.733 32.6035 304.763 26.4835 306.863 18.7335C308.423 12.8535 304.392 7.12352 299.033 5.07352C299.443 4.99352 299.853 4.91352 300.312 4.86352C301.573 4.87352 301.872 4.77352 304.902 6.01352C305.672 6.48352 307.793 7.78352 308.113 8.15352C308.283 8.30352 308.312 8.32351 308.342 8.35351C308.353 8.36351 308.343 8.35352 308.363 8.36352C308.873 8.83352 309.362 9.33352 309.812 9.86352C309.932 10.0135 310.003 10.0935 310.073 10.1835C310.113 10.2435 310.183 10.3435 310.333 10.5435C313.183 15.5135 313.923 20.6535 313.673 26.4935C313.343 31.1935 311.453 34.6235 308.053 39.6435C297.213 55.1435 285.643 70.1235 274.793 85.6135C264.043 99.4335 257.943 119.874 244.523 126.424ZM312.242 77.2835C307.193 75.8635 301.843 76.8735 297.023 78.6835C296.933 78.7235 296.832 78.7635 296.742 78.8035C292.193 80.4235 289.643 84.5035 289.163 88.8435C287.763 97.2035 292.152 106.794 300.003 110.134C309.552 114.864 322.492 109.924 325.092 99.1635C328.943 88.6035 322.332 80.0735 312.242 77.2835ZM319.033 101.174C316.323 105.484 311.893 107.434 306.053 106.934C304.313 106.664 301.232 105.764 298.742 103.694C298.312 103.254 297.323 102.224 297.003 101.744C298.052 102.094 299.173 102.374 300.443 102.464C312.802 102.904 316.302 88.8735 309.973 81.8835C314.342 82.7035 317.952 85.0635 319.962 88.0835C322.592 91.7335 320.973 97.3635 319.033 101.174ZM215.872 58.2035C224.352 65.2335 238.963 65.9435 245.353 55.8135C249.093 50.3135 252.673 42.8435 249.133 36.4135C243.933 27.5635 231.763 23.7135 222.483 28.2535C218.253 30.3535 216.093 32.3335 214.263 35.2335C209.973 42.7035 207.842 52.1335 215.872 58.2035ZM245.613 40.8635C246.373 44.7935 242.793 52.6535 238.273 56.3135C234.073 60.2835 223.533 58.4435 219.273 54.7235C217.043 52.5735 216.103 51.4535 215.803 49.7335C217.693 51.9435 220.493 53.5235 224.303 53.7935C237.943 54.2735 240.793 37.1635 231.553 31.3135C237.963 31.5635 244.213 35.5035 245.613 40.8635ZM426.062 172.924C422.932 168.864 419.913 164.534 417.712 161.134C417.112 160.214 417.233 159.014 418.013 158.243C420.853 155.464 426.333 152.324 430.613 147.083C433.853 143.393 436.773 139.004 437.073 133.974C437.173 127.924 434.312 121.834 429.943 117.714C424.953 113.004 417.203 113.494 411.893 117.394C406.873 120.334 401.992 123.954 397.562 127.184C393.062 118.424 388.302 109.644 380.622 103.554C375.003 99.6835 362.073 99.8235 356.133 103.454C356.103 103.474 356.083 103.494 356.053 103.514C353.923 104.594 352.023 106.184 350.673 108.124C349.333 110.414 348.863 113.114 349.053 115.744C350.333 127.444 358.402 137.074 363.913 147.113C364.503 147.903 364.963 148.834 365.423 149.784C356.503 155.884 348.062 162.813 340.263 170.273C338.333 172.294 337.193 174.993 336.953 177.773C336.943 184.003 339.832 190.443 344.342 194.714C347.712 197.544 352.303 198.654 356.633 198.523C364.863 198.184 371.432 192.574 378.062 188.324C381.293 186.114 384.383 183.714 387.423 181.264C389.633 184.424 391.983 187.504 394.283 190.544C399.992 197.594 406.753 204.723 415.592 207.613C425.073 210.283 434.482 205.304 434.712 194.854C434.652 187.014 430.582 178.784 426.062 172.924ZM381.253 110.534C384.663 114.144 389.712 122.854 393.603 130.004C392.863 130.524 392.073 131.104 391.383 131.564C390.953 131.914 390.473 132.224 389.973 132.524C386.513 127.434 383.562 122.924 380.033 116.624C377.462 112.534 374.693 108.364 370.893 105.314C374.663 105.964 378.673 107.544 381.253 110.534ZM384.212 177.594C380.642 180.584 375.952 183.914 373.622 185.474C364.312 191.694 357.622 196.214 349.163 192.124C347.372 191.464 345.492 188.964 344.062 186.074C348.422 189.824 355.193 190.913 360.223 186.184C366.592 181.294 373.872 176.004 381.323 170.704C382.333 172.914 383.473 175.043 384.753 177.113C384.562 177.273 384.372 177.434 384.212 177.594ZM426.712 201.613C424.812 203.543 419.842 203.924 415.992 202.594C415.812 202.523 415.633 202.404 415.453 202.333C418.093 201.533 420.492 199.874 422.062 197.414C425.073 192.944 424.573 186.484 420.913 182.523C414.663 173.684 408.423 164.844 402.163 156.014C412.872 148.504 422.432 141.754 428.342 137.074C430.663 134.694 431.523 131.654 431.303 128.674C431.713 129.944 432.033 131.314 432.233 132.814C432.503 134.674 430.952 139.584 427.182 143.644C424.492 147.054 419.253 151.174 415.182 154.194C413.792 155.224 412.783 156.354 412.303 158.023C411.123 162.113 415.383 166.284 417.742 169.484C426.312 181.094 435.212 194.243 426.712 201.613Z" fill="#024F40"/>
</svg>
