<svg width="229" height="48" viewBox="0 0 229 48" fill="none" xmlns="http://www.w3.org/2000/svg">
<g opacity="0.4" clip-path="url(#clip0_520_706)">
<path d="M18.102 7.62197C15.423 7.62197 14.6193 8.893 14.6193 11.7239V16.4036H21.7991L21.1025 24.0298H14.6193V47.0817H5.99294V24.0298H0.206299V16.4614H5.99294V11.8973C5.99294 4.15552 8.88627 0.111328 16.8697 0.111328C18.5307 0.111328 20.2452 0.226876 21.9062 0.457973V7.62197" fill="black"/>
<path d="M22.382 30.7908C22.382 22.2402 26.1326 15.7695 34.0624 15.7695C38.3488 15.7695 40.9742 18.1383 42.2601 21.1425V16.4628H50.5115V47.1409H42.2066V42.519C41.0278 45.4655 38.2952 47.7764 34.0088 47.7764C26.1326 47.7764 22.3284 41.3635 22.3284 32.7551M31.0083 32.8707C31.0083 37.4349 32.5622 40.4969 36.5807 40.4969C40.1169 40.4969 41.8851 37.7237 41.8851 33.3329V30.2131C41.8851 25.8222 40.0634 23.0491 36.5807 23.0491C32.5622 23.0491 31.0083 26.0533 31.0083 30.6753V32.8707Z" fill="black"/>
<path d="M68.4156 15.7695C71.7375 15.7695 74.9523 16.5206 76.6669 17.8494L74.738 24.4357C72.9699 23.5113 70.9874 23.0491 69.0049 23.0491C64.3435 23.0491 62.3074 25.9378 62.3074 30.9064V32.6974C62.3074 37.6659 64.3435 40.5547 69.0049 40.5547C70.9874 40.5547 72.9699 40.0347 74.738 39.1103L76.6669 45.6966C74.9523 46.9676 71.7911 47.7764 68.4156 47.7764C58.2889 47.7764 53.7346 41.9412 53.7346 32.524V31.0797C53.7346 21.6625 58.2889 15.7695 68.4156 15.7695Z" fill="black"/>
<path d="M77.7919 32.9285V30.2131C77.7919 21.4892 82.3997 15.7695 91.7763 15.7695C100.617 15.7695 104.528 21.5469 104.528 30.0975V35.0083H86.4183C86.579 39.2258 88.3471 41.0746 93.1158 41.0746C96.2234 41.0746 99.331 40.4391 102.278 39.2258L103.832 45.581C101.581 46.852 96.9199 47.8342 92.7943 47.8342C81.864 47.7764 77.7919 41.9412 77.7919 32.9285ZM86.4183 28.8843H96.8128V28.1332C96.8128 24.7823 95.5804 22.1247 91.7763 22.1247C87.9185 22.1247 86.4183 24.7823 86.4183 28.8843Z" fill="black"/>
<path d="M136.458 32.7534C136.458 41.304 132.654 47.7747 124.724 47.7747C120.438 47.7747 117.437 45.4638 116.258 42.5173V47.1392H108.114V1.0354L116.741 0.226562V20.7364C117.973 18.021 120.759 15.8256 124.778 15.8256C132.654 15.8256 136.512 22.2385 136.512 30.8469M127.832 30.6158C127.832 26.2827 126.278 23.0474 122.152 23.0474C118.616 23.0474 116.741 25.7628 116.741 30.1536V33.3889C116.741 37.7798 118.67 40.4952 122.152 40.4952C126.278 40.4952 127.832 37.2598 127.832 32.9268V30.6158Z" fill="black"/>
<path d="M139.297 32.524V30.9641C139.297 22.1247 143.958 15.7695 153.442 15.7695C162.926 15.7695 167.587 22.1247 167.587 30.9641V32.524C167.587 41.3635 162.926 47.7187 153.442 47.7187C143.958 47.7187 139.297 41.4213 139.297 32.524ZM159.014 30.3286C159.014 26.2844 157.461 23.0491 153.442 23.0491C149.424 23.0491 147.87 26.2844 147.87 30.3286V33.2173C147.87 37.2615 149.424 40.4969 153.442 40.4969C157.461 40.4969 159.014 37.2615 159.014 33.2173V30.3286Z" fill="black"/>
<path d="M170.537 32.524V30.9641C170.537 22.1247 175.198 15.7695 184.682 15.7695C194.166 15.7695 198.827 22.1247 198.827 30.9641V32.524C198.827 41.3635 194.166 47.7187 184.682 47.7187C175.198 47.7187 170.537 41.4213 170.537 32.524ZM190.254 30.3286C190.254 26.2844 188.7 23.0491 184.682 23.0491C180.663 23.0491 179.11 26.2844 179.11 30.3286V33.2173C179.11 37.2615 180.663 40.4969 184.682 40.4969C188.7 40.4969 190.254 37.2615 190.254 33.2173V30.3286Z" fill="black"/>
<path d="M210.668 31.083L219.187 16.4084H228.296L219.401 31.603L228.671 47.1442H219.509L210.668 32.123V47.1442H202.095V1.04044L210.668 0.173828" fill="black"/>
</g>
<defs>
<clipPath id="clip0_520_706">
<rect width="228.465" height="47.6932" fill="white" transform="translate(0.203613 0.0957031)"/>
</clipPath>
</defs>
</svg>
