<svg width="225" height="78" viewBox="0 0 225 78" fill="none" xmlns="http://www.w3.org/2000/svg">
<g opacity="0.4" clip-path="url(#clip0_520_686)">
<path d="M217.173 47.9296L223.392 52.2818C221.373 55.4027 216.546 60.7574 208.2 60.7574C197.837 60.7574 190.119 52.3393 190.119 41.6304C190.119 30.2349 197.919 22.5039 207.328 22.5039C216.791 22.5039 221.428 30.4063 222.928 34.6726L223.746 36.8489L199.364 47.4429C201.219 51.2798 204.11 53.2268 208.2 53.2268C212.292 53.2268 215.128 51.1079 217.173 47.9296ZM198.055 41.0297L214.337 33.9284C213.437 31.5521 210.765 29.863 207.573 29.863C203.51 29.863 197.864 33.6425 198.055 41.0297Z" fill="black"/>
<path d="M178.363 3.00391H186.217V59.0096H178.363V3.00391Z" fill="black"/>
<path d="M165.984 23.9957H173.566V58.0115C173.566 72.1271 165.629 77.9396 156.247 77.9396C147.411 77.9396 142.093 71.6978 140.102 66.6299L147.057 63.5946C148.311 66.7154 151.338 70.4095 156.247 70.4095C162.275 70.4095 165.984 66.4865 165.984 59.1569V56.4083H165.711C163.911 58.6986 160.475 60.76 156.111 60.76C147.002 60.76 138.656 52.4279 138.656 41.691C138.656 30.8961 147.002 22.4785 156.111 22.4785C160.448 22.4785 163.911 24.5115 165.711 26.7448H165.984V23.9957ZM166.529 41.691C166.529 34.9335 162.247 30.0086 156.793 30.0086C151.284 30.0086 146.647 34.9335 146.647 41.691C146.647 48.362 151.284 53.201 156.793 53.201C162.248 53.2299 166.53 48.362 166.53 41.691" fill="black"/>
<path d="M95.5342 41.5437C95.5342 52.5674 87.3525 60.6702 77.3159 60.6702C67.2797 60.6702 59.0977 52.5389 59.0977 41.5437C59.0977 30.463 67.2797 22.3887 77.3159 22.3887C87.3525 22.3887 95.5342 30.463 95.5342 41.5437ZM87.5705 41.5437C87.5705 34.6722 82.8248 29.9473 77.3159 29.9473C71.807 29.9473 67.0613 34.6722 67.0613 41.5437C67.0613 48.3581 71.807 53.1401 77.3159 53.1401C82.8252 53.1401 87.5705 48.3581 87.5705 41.5437Z" fill="black"/>
<path d="M135.33 41.6304C135.33 52.6541 127.148 60.7569 117.112 60.7569C107.076 60.7569 98.8939 52.6537 98.8939 41.6304C98.8939 30.5497 107.076 22.5039 117.112 22.5039C127.148 22.5039 135.33 30.5212 135.33 41.6304ZM127.339 41.6304C127.339 34.759 122.594 30.034 117.085 30.034C111.575 30.034 106.83 34.759 106.83 41.6304C106.83 48.4449 111.576 53.2268 117.085 53.2268C122.621 53.2268 127.339 48.4164 127.339 41.6304Z" fill="black"/>
<path d="M29.162 52.3699C17.7345 52.3699 8.7893 42.692 8.7893 30.6948C8.7893 18.698 17.7345 9.02007 29.162 9.02007C35.3258 9.02007 39.8255 11.5683 43.1528 14.8325L48.635 9.07753C43.9987 4.41046 37.8077 0.859375 29.162 0.859375C13.5075 0.859835 0.334473 14.2603 0.334473 30.6948C0.334473 47.1292 13.5075 60.5301 29.162 60.5301C37.6168 60.5301 43.9987 57.6097 48.9896 52.1695C54.1167 46.7863 55.6985 39.2273 55.6985 33.1C55.6985 31.1815 55.4804 29.206 55.2348 27.7458H29.162V35.7056H47.7349C47.1894 40.688 45.6894 44.0952 43.4803 46.414C40.8075 49.249 36.5805 52.3699 29.162 52.3699Z" fill="black"/>
</g>
<defs>
<clipPath id="clip0_520_686">
<rect width="224.155" height="77.2175" fill="white" transform="translate(0 0.740234)"/>
</clipPath>
</defs>
</svg>
