<svg width="207" height="70" viewBox="0 0 207 70" fill="none" xmlns="http://www.w3.org/2000/svg">
<g opacity="0.4">
<path d="M46.5405 17.6247V38.7084C46.5405 39.0501 46.4165 39.3779 46.1957 39.6195C45.975 39.8612 45.6756 39.997 45.3634 39.997H39.2836C38.9715 39.9968 38.6721 39.861 38.4514 39.6194C38.2307 39.3777 38.1066 39.0501 38.1065 38.7084V4.41481C38.1065 4.07305 38.2305 3.74529 38.4512 3.50363C38.672 3.26197 38.9714 3.12621 39.2836 3.12621H44.9098C45.222 3.12621 45.5214 3.26197 45.7421 3.50363C45.9629 3.74529 46.0869 4.07305 46.0869 4.41481V9.24425C46.0869 9.24425 48.0981 2.3552 54.0668 2.3552C54.0668 2.3552 59.9706 1.57397 62.3711 8.7471C62.3711 8.7471 64.3823 2.3552 70.4808 2.3552C70.4808 2.3552 79.5501 1.76487 79.5501 12.0379L79.6191 17.6958V38.7794C79.6191 39.1211 79.4951 39.4489 79.2743 39.6906C79.0536 39.9322 78.7542 40.068 78.442 40.068H72.3617C72.0495 40.0678 71.7502 39.932 71.5295 39.6904C71.3087 39.4488 71.1847 39.1211 71.1845 38.7794L71.129 15.7782C71.3018 10.5698 67.4528 10.9488 67.4528 10.9488C62.6088 11.0436 63.0749 17.6958 63.0749 17.6958V38.7794C63.0749 39.1211 62.9509 39.4489 62.7301 39.6906C62.5094 39.9322 62.2099 40.068 61.8978 40.068H55.818C55.5058 40.0678 55.2065 39.932 54.9858 39.6904C54.765 39.4488 54.641 39.1211 54.6408 38.7794V16.2986C54.6408 16.2986 54.9964 10.901 50.6709 10.901C50.6714 10.901 46.3895 10.2857 46.5405 17.6247ZM203.261 17.5617V38.6447C203.261 38.9864 203.137 39.3141 202.916 39.5557C202.695 39.7974 202.396 39.9332 202.084 39.9333L195.76 40.0674C195.448 40.0673 195.149 39.9315 194.928 39.6898C194.707 39.4482 194.583 39.1205 194.583 38.7788V16.2986C194.583 16.2986 194.939 10.901 190.614 10.901C190.614 10.901 186.483 10.6783 186.483 19.1412V38.7078C186.483 39.0495 186.359 39.3772 186.138 39.6188C185.917 39.8604 185.618 39.9962 185.306 39.9964H179.225C178.913 39.9962 178.614 39.8604 178.393 39.6188C178.173 39.3772 178.048 39.0495 178.048 38.7078V4.41481C178.048 4.0731 178.173 3.74542 178.393 3.5038C178.614 3.26217 178.913 3.12636 179.225 3.12621H184.852C185.164 3.12621 185.463 3.26197 185.684 3.50363C185.905 3.74529 186.029 4.07305 186.029 4.41481V9.24425C186.029 9.24425 188.04 2.3552 194.009 2.3552C194.009 2.3552 200.402 1.29329 202.556 8.61358C202.556 8.61301 203.261 10.1232 203.261 17.5617ZM159.362 2.21316C151.587 2.21316 145.284 9.38629 145.284 21.4599C145.284 32.0898 150.15 40.7066 159.362 40.7066C168.056 40.7066 173.441 32.0898 173.441 21.4599C173.441 9.59935 167.138 2.21316 159.362 2.21316ZM164.269 21.886C164.269 26.4314 163.75 28.8461 163.75 28.8461C163.012 33.6511 159.826 33.6579 159.356 33.6323C158.849 33.6545 155.636 33.6045 154.971 28.8461C154.971 28.8461 154.452 26.4314 154.452 21.886V21.1286C154.452 16.5833 154.971 14.1686 154.971 14.1686C155.636 9.41015 158.849 9.36016 159.356 9.38175C159.826 9.35618 163.012 9.36243 163.75 14.1686C163.75 14.1686 164.269 16.5833 164.269 21.1286V21.886ZM141.755 9.19652V4.27618C141.755 3.93447 141.631 3.60679 141.41 3.36516C141.189 3.12353 140.89 2.98772 140.578 2.98757H120.481C120.169 2.98757 119.87 3.12334 119.649 3.365C119.428 3.60666 119.304 3.93442 119.304 4.27618V9.15846C119.304 9.50017 119.428 9.82784 119.649 10.0695C119.87 10.3111 120.169 10.4469 120.481 10.4471H130.964L118.556 30.1512C118.556 30.1512 118.067 30.95 118.084 31.8324V37.826C118.084 37.826 118.003 39.8811 120.132 38.6885C120.132 38.6885 123.913 36.1874 130.254 36.1874C130.254 36.1874 136.516 36.1022 140.691 38.9038C140.691 38.9038 142.424 39.7663 142.424 37.8697V32.6528C142.424 32.6528 142.581 31.2722 140.927 30.4102C140.927 30.4102 136.122 27.5217 129.821 27.9955L141.755 9.19652ZM33.414 33.8641L31.5108 30.6926C30.9051 29.5086 30.9487 28.1825 30.9487 28.1825V13.5527C31.2082 0.910914 18.4056 2.00009 18.4056 2.00009C7.02454 2.00009 5.34344 11.6959 5.34344 11.6959C4.86905 13.6453 6.2486 13.6924 6.2486 13.6924L11.8099 14.31C11.8099 14.31 12.7581 14.5475 13.1033 13.3118C13.1033 13.3118 13.8356 9.08175 17.9312 9.08175C22.3875 9.08175 22.3413 13.2686 22.3413 13.2686V16.7736C13.4453 17.0992 9.32275 19.8025 9.32275 19.8025C3.82998 23.2115 4.17565 29.9824 4.17565 29.9824C4.17565 41.014 13.7775 40.5401 13.7775 40.5401C19.919 40.5401 23.5522 35.6164 23.5522 35.6164C24.6333 37.7004 26.6232 39.6879 26.6232 39.6879C27.6187 40.8697 28.6562 39.8777 28.6562 39.8777L33.1545 35.6641C34.149 34.8584 33.414 33.8641 33.414 33.8641ZM16.7748 33.7278C13.886 33.7278 12.8121 30.5852 13.2917 27.4967C13.7718 24.4081 16.2651 21.9809 22.3418 22.0519V23.9297C22.5572 32.1329 19.1794 33.7278 16.7748 33.7278ZM114.208 33.8641L112.305 30.6926C111.699 29.5086 111.742 28.1825 111.742 28.1825V13.5527C112.002 0.910914 99.1991 2.00009 99.1991 2.00009C87.818 2.00009 86.1369 11.6959 86.1369 11.6959C85.6626 13.6453 87.0421 13.6924 87.0421 13.6924L92.6034 14.31C92.6034 14.31 93.5516 14.5475 93.8968 13.3118C93.8968 13.3118 94.6291 9.08175 98.7247 9.08175C103.181 9.08175 103.135 13.2686 103.135 13.2686V16.7736C94.2393 17.0992 90.1163 19.8025 90.1163 19.8025C84.6235 23.2115 84.9692 29.9824 84.9692 29.9824C84.9692 41.014 94.571 40.5401 94.571 40.5401C100.713 40.5401 104.346 35.6164 104.346 35.6164C105.427 37.7004 107.416 39.6879 107.416 39.6879C108.412 40.8697 109.45 39.8777 109.45 39.8777L113.948 35.6641C114.942 34.8584 114.208 33.8641 114.208 33.8641ZM97.5683 33.7278C94.6795 33.7278 93.6056 30.5852 94.0852 27.4967C94.5653 24.4081 97.0586 21.9809 103.135 22.0519V23.9297C103.351 32.1329 99.9735 33.7278 97.5683 33.7278Z" fill="black"/>
<path d="M129.517 61.5584C129.517 61.5584 129.008 62.5271 129.633 62.7436C129.633 62.7436 130.339 63.0453 131.219 62.151C131.219 62.151 137.639 56.012 137.794 44.8349C137.794 44.8349 137.841 43.4389 137.329 43.0571C137.329 43.0571 135.318 41.1094 128.086 41.702C128.086 41.702 121.782 42.1679 118.341 45.5128C118.341 45.5128 118.031 45.8088 118.031 46.1894C118.031 46.1894 117.957 47.0116 119.849 46.6553C119.849 46.6553 126.152 45.6809 129.904 46.1894C129.904 46.1894 131.838 46.4434 132.379 47.1639C132.379 47.1639 133.269 47.9684 132.805 50.6348C132.805 50.6359 131.528 57.4096 129.517 61.5584Z" fill="black"/>
<path d="M128.247 50.8385C128.247 50.8385 129.188 52.1737 127.669 53.3254C127.669 53.3254 111.441 67.5353 84.1926 67.5353C84.1926 67.5353 56.1438 69.0501 32.7231 45.7551C32.7231 45.7551 31.902 44.9659 32.4117 44.2324C32.4117 44.2324 32.8674 43.5575 34.0471 44.2915C34.0471 44.2915 56.0789 59.3202 85.0142 59.3202C85.0142 59.3202 105.126 60.1724 125.757 50.5135C125.757 50.5135 127.401 49.5812 128.247 50.8385Z" fill="black"/>
</g>
</svg>
