<svg width="240" height="55" viewBox="0 0 240 55" fill="none" xmlns="http://www.w3.org/2000/svg">
<g opacity="0.4" clip-path="url(#clip0_520_693)">
<path d="M84.5321 31.4813L83.106 35.7911H82.9872C82.7495 34.8193 82.3137 33.3404 81.6007 31.5658L73.9552 11.073H66.4681V43.7347H71.4199V23.5799C71.4199 22.3123 71.4199 20.8757 71.3803 19.1011C71.3407 18.2138 71.2614 17.5377 71.2218 17.0307H71.3407C71.5783 18.2983 71.8556 19.2279 72.0537 19.8194L81.2442 43.6502H84.7302L93.8414 19.6081C94.0395 19.0588 94.2376 17.9603 94.4356 17.0307H94.5545C94.4356 19.4391 94.3564 21.594 94.3168 22.9039V43.6079H99.5855V10.9885H92.3757L84.5321 31.4813ZM104.577 20.1997H109.727V43.6079H104.577V20.1997ZM107.191 10.3125C106.32 10.3125 105.607 10.6505 105.013 11.242C104.418 11.8336 104.101 12.5941 104.101 13.5237C104.101 14.411 104.418 15.1716 105.013 15.7631C105.607 16.3546 106.32 16.6504 107.191 16.6504C108.063 16.6504 108.816 16.3124 109.37 15.7631C109.964 15.1716 110.281 14.411 110.281 13.5237C110.281 12.6364 109.964 11.8758 109.37 11.242C108.855 10.6505 108.102 10.3125 107.191 10.3125ZM127.989 19.9884C127.038 19.7771 126.048 19.6504 125.097 19.6504C122.76 19.6504 120.621 20.1997 118.838 21.2983C117.055 22.3968 115.629 23.918 114.718 25.8193C113.767 27.763 113.292 30.0024 113.292 32.5798C113.292 34.8193 113.767 36.8051 114.678 38.622C115.59 40.3967 116.857 41.8333 118.561 42.8051C120.185 43.7769 122.086 44.2839 124.225 44.2839C126.681 44.2839 128.781 43.7347 130.445 42.7206L130.484 42.6783V37.608L130.286 37.777C129.534 38.3685 128.662 38.8755 127.791 39.1713C126.88 39.5093 126.048 39.6784 125.335 39.6784C123.275 39.6784 121.65 39.0446 120.502 37.6502C119.313 36.2981 118.719 34.439 118.719 32.1151C118.719 29.7066 119.313 27.8052 120.541 26.4109C121.769 25.0165 123.393 24.2982 125.374 24.2982C127.038 24.2982 128.741 24.8898 130.286 26.0729L130.484 26.2419V20.8757L130.445 20.8335C129.771 20.5377 129.019 20.1997 127.989 19.9884ZM144.983 19.8194C143.715 19.8194 142.527 20.2419 141.497 21.1292C140.626 21.8898 140.031 22.9884 139.516 24.2982H139.477V20.1997H134.327V43.6079H139.477V31.6503C139.477 29.6221 139.873 27.932 140.744 26.7067C141.616 25.4391 142.725 24.8053 144.072 24.8053C144.547 24.8053 145.023 24.932 145.617 25.0165C146.172 25.1855 146.568 25.3546 146.845 25.5658L147.043 25.7348V20.2419L146.924 20.1997C146.568 19.9462 145.855 19.8194 144.983 19.8194ZM159.007 19.6926C155.402 19.6926 152.51 20.8335 150.489 23.0729C148.43 25.3123 147.439 28.3968 147.439 32.2841C147.439 35.9178 148.469 38.8756 150.45 41.0305C152.431 43.1431 155.124 44.2417 158.492 44.2417C162.017 44.2417 164.83 43.1009 166.85 40.8192C168.91 38.5375 169.9 35.4953 169.9 31.7348C169.9 28.0165 168.95 25.0588 167.009 22.9039C165.147 20.749 162.413 19.6926 159.007 19.6926ZM163.126 37.6925C162.176 39.0023 160.67 39.6361 158.808 39.6361C156.947 39.6361 155.441 39.0023 154.372 37.608C153.302 36.2981 152.787 34.3967 152.787 31.9883C152.787 29.4954 153.342 27.594 154.372 26.2419C155.441 24.8898 156.907 24.2137 158.769 24.2137C160.591 24.2137 162.017 24.8475 163.047 26.1574C164.077 27.4672 164.632 29.3686 164.632 31.8615C164.552 34.3967 164.117 36.3826 163.126 37.6925ZM181.388 29.9179C179.764 29.1996 178.734 28.6503 178.259 28.1855C177.863 27.763 177.665 27.1714 177.665 26.4109C177.665 25.7771 177.902 25.1433 178.497 24.7208C179.091 24.2982 179.764 24.087 180.755 24.087C181.626 24.087 182.537 24.256 183.409 24.5095C184.28 24.763 185.073 25.1433 185.706 25.6503L185.904 25.8193V20.6645L185.786 20.6222C185.191 20.3687 184.399 20.1152 183.448 19.9039C182.498 19.7349 181.626 19.6504 180.913 19.6504C178.457 19.6504 176.437 20.2842 174.852 21.6785C173.268 22.9884 172.515 24.763 172.515 26.8334C172.515 27.932 172.673 28.9038 173.03 29.7066C173.386 30.5094 173.901 31.27 174.614 31.9038C175.327 32.4953 176.357 33.1714 177.784 33.8052C178.972 34.3545 179.883 34.777 180.438 35.115C180.992 35.4531 181.349 35.8333 181.626 36.1291C181.824 36.4671 181.943 36.8897 181.943 37.4389C181.943 39.0023 180.834 39.7629 178.576 39.7629C177.704 39.7629 176.793 39.5939 175.724 39.2136C174.654 38.8333 173.664 38.284 172.832 37.6502L172.634 37.4812V42.8473L172.753 42.8896C173.505 43.2699 174.416 43.5234 175.526 43.8192C176.635 44.0304 177.625 44.1994 178.497 44.1994C181.151 44.1994 183.33 43.5656 184.874 42.1713C186.459 40.8192 187.291 39.0868 187.291 36.8474C187.291 35.284 186.895 33.8897 186.023 32.8334C184.874 31.8193 183.448 30.763 181.388 29.9179ZM200.879 19.6926C197.274 19.6926 194.382 20.8335 192.362 23.0729C190.341 25.3123 189.311 28.3968 189.311 32.2841C189.311 35.9178 190.341 38.8756 192.322 41.0305C194.303 43.1431 196.996 44.2417 200.364 44.2417C203.889 44.2417 206.702 43.1009 208.722 40.8192C210.782 38.5375 211.772 35.4953 211.772 31.7348C211.772 28.0165 210.822 25.0588 208.881 22.9039C207.019 20.749 204.285 19.6926 200.879 19.6926ZM204.959 37.6925C204.008 39.0023 202.503 39.6361 200.641 39.6361C198.739 39.6361 197.274 39.0023 196.204 37.608C195.134 36.2981 194.62 34.3967 194.62 31.9883C194.62 29.4954 195.174 27.594 196.204 26.2419C197.274 24.8898 198.739 24.2137 200.601 24.2137C202.384 24.2137 203.85 24.8475 204.88 26.1574C205.91 27.4672 206.464 29.3686 206.464 31.8615C206.464 34.3967 205.949 36.3826 204.959 37.6925ZM239.304 24.7208V20.1997H234.115V13.2702L233.956 13.3124L229.044 14.8758L228.925 14.918V20.1997H221.161V17.242C221.161 15.8899 221.478 14.8335 222.032 14.1575C222.587 13.4814 223.419 13.1434 224.449 13.1434C225.162 13.1434 225.915 13.3124 226.746 13.6927L226.945 13.8195V9.04486L226.826 9.00261C226.113 8.74909 225.162 8.58008 223.934 8.58008C222.389 8.58008 221.042 8.96036 219.814 9.59415C218.586 10.3125 217.675 11.2843 217.001 12.5941C216.328 13.8617 215.971 15.2983 215.971 16.9462V20.1997H212.367V24.6785H215.971V43.6079H221.161V24.7208H228.925V36.7629C228.925 41.7065 231.104 44.1994 235.462 44.1994C236.175 44.1994 236.927 44.0727 237.64 43.9459C238.393 43.7769 238.948 43.5656 239.265 43.3966L239.304 43.3544V38.8333L239.106 39.0023C238.789 39.2136 238.512 39.3826 238.036 39.5093C237.64 39.6361 237.284 39.6784 237.007 39.6784C235.977 39.6784 235.264 39.4248 234.749 38.791C234.273 38.1995 234.035 37.2277 234.035 35.7911V24.7208H239.304Z" fill="black"/>
<path d="M0.0679932 0.0898438H24.3514V25.991H0.0679932V0.0898438Z" fill="black"/>
<path d="M26.8849 0.0898438H51.1683V25.991H26.8849V0.0898438Z" fill="black"/>
<path d="M0.0679932 28.6934H24.3514V54.5945H0.0679932V28.6934Z" fill="black"/>
<path d="M26.8849 28.6934H51.1683V54.5945H26.8849V28.6934Z" fill="black"/>
</g>
<defs>
<clipPath id="clip0_520_693">
<rect width="239.242" height="54.5065" fill="white" transform="translate(0.0588379 0.0957031)"/>
</clipPath>
</defs>
</svg>
