<svg width="232" height="73" viewBox="0 0 232 73" fill="none" xmlns="http://www.w3.org/2000/svg">
<g opacity="0.4" clip-path="url(#clip0_520_704)">
<path d="M35.1544 0.0703125C16.0543 0.0703125 0.569946 16.3135 0.569946 36.35C0.569946 56.3875 16.0543 72.6293 35.1544 72.6293C54.2565 72.6293 69.7392 56.3875 69.7392 36.35C69.7392 16.3148 54.2565 0.0720454 35.1539 0.0720454L35.1544 0.0703125ZM51.0145 52.3961C50.867 52.6498 50.6731 52.8704 50.4441 53.0455C50.2152 53.2205 49.9555 53.3464 49.6801 53.416C49.4047 53.4856 49.1189 53.4976 48.839 53.4512C48.5592 53.4048 48.2908 53.3009 48.0493 53.1456C39.9293 47.9425 29.7071 46.7641 17.6687 49.6494C17.1112 49.7824 16.5263 49.6777 16.0424 49.3585C15.5584 49.0392 15.2151 48.5315 15.0879 47.9468C15.0246 47.6573 15.0163 47.3576 15.0635 47.0647C15.1107 46.7718 15.2126 46.4916 15.3632 46.2401C15.5138 45.9886 15.7102 45.7707 15.9412 45.599C16.1722 45.4272 16.4332 45.3049 16.7093 45.2391C29.8835 42.0817 41.1839 43.4412 50.3001 49.2855C51.316 49.9397 51.6381 51.3303 51.0145 52.3961ZM55.2476 42.5175C54.4671 43.8484 52.8069 44.2687 51.539 43.4499C42.2428 37.4557 28.0721 35.7197 17.0764 39.2211C15.6504 39.6729 14.1443 38.8299 13.7115 37.3365C13.5049 36.6186 13.5783 35.844 13.9153 35.1827C14.2524 34.5213 14.8257 34.0272 15.5096 33.8087C28.0696 29.8108 43.6841 31.7474 54.3597 38.6293C55.6275 39.4481 56.0281 41.1892 55.2476 42.5175ZM55.611 32.2309C44.4646 25.2857 26.0745 24.6471 15.4324 28.0355C13.7234 28.5792 11.9162 27.5671 11.3983 25.7744C11.1493 24.9131 11.2366 23.9833 11.6409 23.1895C12.0453 22.3957 12.7336 21.8028 13.5545 21.5413C25.771 17.6509 46.0794 18.4025 58.9124 26.3944C59.2782 26.6213 59.5976 26.9218 59.8525 27.2785C60.1074 27.6352 60.2927 28.0411 60.3978 28.473C60.5029 28.905 60.5258 29.3544 60.4651 29.7956C60.4044 30.2368 60.2613 30.6611 60.044 31.0442C59.1354 32.6567 57.1448 33.1883 55.6127 32.2309H55.611ZM94.6627 33.5618C88.6909 32.068 87.6296 31.0196 87.6296 28.8166C87.6296 26.7353 89.4962 25.3347 92.2756 25.3347C94.9683 25.3347 97.6361 26.3983 100.436 28.5878C100.519 28.6541 100.626 28.6805 100.729 28.6632C100.781 28.6554 100.831 28.6365 100.876 28.6078C100.921 28.579 100.959 28.541 100.99 28.496L103.905 24.1844C103.963 24.099 103.987 23.9937 103.973 23.89C103.96 23.7864 103.909 23.6921 103.831 23.6264C100.498 20.8221 96.7482 19.4588 92.3624 19.4588C85.9157 19.4588 81.41 23.5177 81.41 29.3252C81.41 35.5529 85.2962 37.758 92.0113 39.4602C97.7229 40.8409 98.6892 41.9977 98.6892 44.065C98.6892 46.3568 96.74 47.7822 93.6013 47.7822C90.1157 47.7822 87.2703 46.5475 84.0903 43.6621C84.011 43.5918 83.909 43.5561 83.8054 43.5625C83.698 43.5712 83.603 43.6231 83.5369 43.7055L80.2661 47.7865C80.1298 47.9598 80.1463 48.2111 80.3033 48.3584C84.0036 51.8242 88.5546 53.6525 93.4691 53.6525C100.416 53.6525 104.905 49.6711 104.905 43.5062C104.917 38.3044 101.948 35.4234 94.675 33.5674L94.6627 33.5618ZM120.623 27.3839C117.612 27.3839 115.142 28.6281 113.102 31.1777V28.308C113.103 28.1994 113.062 28.0952 112.989 28.0181C112.917 27.941 112.818 27.8974 112.714 27.8968H107.366C107.151 27.8968 106.978 28.0814 106.978 28.308V60.1943C106.978 60.4196 107.151 60.6059 107.366 60.6059H112.714C112.929 60.6059 113.102 60.4196 113.102 60.1943V50.1303C115.142 52.5261 117.612 53.7001 120.623 53.7001C126.219 53.7001 131.885 49.1815 131.885 40.5433C131.893 31.9033 126.227 27.3834 120.627 27.3834L120.623 27.3839ZM125.665 40.5433C125.665 44.9402 123.084 48.0118 119.384 48.0118C115.729 48.0118 112.97 44.8015 112.97 40.5433C112.97 36.2846 115.729 33.0752 119.384 33.0752C123.022 33.0748 125.665 36.2153 125.665 40.5433ZM146.401 27.3839C139.195 27.3839 133.549 33.2048 133.549 40.6373C133.549 47.9901 139.157 53.7478 146.314 53.7478C153.546 53.7478 159.208 47.9468 159.208 40.5433C159.208 33.1649 153.583 27.3847 146.401 27.3847V27.3839ZM146.401 48.0551C142.569 48.0551 139.678 44.8232 139.678 40.5411C139.678 36.2396 142.47 33.1181 146.314 33.1181C150.172 33.1181 153.079 36.3487 153.079 40.6351C153.079 44.9358 150.271 48.0551 146.401 48.0551ZM174.595 27.8968H168.71V21.5864C168.711 21.5326 168.701 21.4794 168.681 21.4297C168.662 21.38 168.633 21.3348 168.597 21.2967C168.561 21.2585 168.519 21.2282 168.471 21.2074C168.424 21.1867 168.373 21.1759 168.322 21.1757H162.974C162.759 21.1757 162.582 21.3602 162.582 21.5864V27.8968H160.013C159.798 27.8968 159.625 28.0814 159.625 28.308V33.1285C159.625 33.3547 159.798 33.5397 160.013 33.5397H162.582V46.0146C162.582 51.0531 164.973 53.6091 169.693 53.6091C171.61 53.6091 173.2 53.1932 174.699 52.3008C174.823 52.2315 174.897 52.0928 174.897 51.9455V47.3533C174.897 47.2146 174.827 47.0803 174.711 47.0067C174.655 46.9689 174.59 46.9475 174.523 46.9444C174.457 46.9414 174.39 46.9569 174.331 46.9894C173.303 47.5309 172.308 47.7822 171.192 47.7822C169.479 47.7822 168.71 46.9634 168.71 45.1351V33.5418H174.595C174.81 33.5418 174.984 33.3573 174.984 33.1307V28.3106C174.985 28.2568 174.977 28.2032 174.958 28.153C174.94 28.1028 174.911 28.0572 174.876 28.0187C174.84 27.9803 174.797 27.9499 174.749 27.9294C174.702 27.9089 174.651 27.8987 174.6 27.8994L174.595 27.8968ZM195.096 27.9215V27.1465C195.096 24.8664 195.93 23.8496 197.797 23.8496C198.912 23.8496 199.808 24.0818 200.812 24.4327C200.935 24.4734 201.064 24.4531 201.163 24.3755C201.213 24.3374 201.254 24.2873 201.282 24.2292C201.31 24.1712 201.324 24.107 201.324 24.0419V19.3154C201.325 19.2271 201.298 19.1409 201.248 19.0698C201.198 18.9987 201.128 18.9467 201.047 18.9215C199.99 18.591 198.635 18.2518 196.603 18.2518C191.668 18.2518 189.054 21.1692 189.054 26.6855V27.8726H186.485C186.27 27.8726 186.093 28.0571 186.093 28.2833V33.1285C186.093 33.3547 186.27 33.5397 186.485 33.5397H189.054V52.7773C189.054 53.007 189.232 53.1889 189.446 53.1889H194.79C195.009 53.1889 195.183 53.007 195.183 52.7773V33.541H200.176L207.824 52.7773C206.957 54.7962 206.102 55.1991 204.937 55.1991C203.996 55.1991 203 54.9045 201.989 54.3196C201.893 54.2689 201.782 54.258 201.679 54.2893C201.576 54.3283 201.489 54.4063 201.448 54.5103L199.635 58.6823C199.548 58.8816 199.622 59.1112 199.804 59.2152C201.695 60.2896 203.401 60.7488 205.511 60.7488C209.459 60.7488 211.644 58.8166 213.564 53.6265L222.84 28.483C222.864 28.4208 222.873 28.3533 222.866 28.2866C222.859 28.2199 222.836 28.1562 222.799 28.1013C222.764 28.0464 222.717 28.0013 222.661 27.9702C222.606 27.939 222.544 27.9228 222.481 27.9228H216.914C216.744 27.9228 216.596 28.0342 216.542 28.1983L210.839 45.2824L204.595 28.1871C204.567 28.1096 204.517 28.0429 204.452 27.9957C204.387 27.9485 204.31 27.9231 204.231 27.9228H195.096V27.9215ZM183.21 27.8968H177.862C177.647 27.8968 177.47 28.0814 177.47 28.308V52.7773C177.47 53.007 177.647 53.1889 177.862 53.1889H183.21C183.425 53.1889 183.603 53.007 183.603 52.7773V28.3097C183.603 28.2556 183.593 28.2021 183.573 28.1521C183.553 28.1022 183.524 28.0568 183.488 28.0186C183.451 27.9804 183.408 27.9501 183.361 27.9295C183.313 27.9089 183.262 27.8984 183.21 27.8986V27.8968ZM180.567 16.7545C178.449 16.7545 176.731 18.5533 176.731 20.7753C176.731 22.9987 178.449 24.7996 180.567 24.7996C182.686 24.7996 184.4 22.9987 184.4 20.7753C184.4 18.5537 182.682 16.7545 180.567 16.7545ZM227.408 35.7647C225.293 35.7647 223.645 33.982 223.645 31.8171C223.645 29.6523 225.314 27.8492 227.428 27.8492C229.543 27.8492 231.191 29.6315 231.191 31.7946C231.191 33.9595 229.522 35.7647 227.408 35.7647ZM227.428 28.2417C225.5 28.2417 224.042 29.849 224.042 31.8171C224.042 33.7844 225.491 35.3701 227.408 35.3701C229.336 35.3701 230.794 33.7641 230.794 31.7946C230.794 29.8273 229.345 28.2417 227.428 28.2417ZM228.263 32.2005L229.328 33.7636H228.428L227.47 32.3296H226.648V33.7636H225.896V29.6202H227.655C228.576 29.6202 229.179 30.1128 229.179 30.942C229.184 31.6213 228.808 32.0364 228.267 32.2005H228.263ZM227.627 30.3311H226.648V31.6417H227.627C228.114 31.6417 228.407 31.3908 228.407 30.9858C228.407 30.5595 228.114 30.3311 227.627 30.3311Z" fill="black"/>
</g>
<defs>
<clipPath id="clip0_520_704">
<rect width="230.621" height="72.6753" fill="white" transform="translate(0.569092 0.0117188)"/>
</clipPath>
</defs>
</svg>
